<svg width="26" height="26" viewBox="0 0 26 26" fill="none" xmlns="http://www.w3.org/2000/svg">
<path fill-rule="evenodd" clip-rule="evenodd" d="M13 23.4C18.7437 23.4 23.4 18.7438 23.4 13C23.4 7.25624 18.7437 2.60001 13 2.60001C7.25621 2.60001 2.59998 7.25624 2.59998 13C2.59998 18.7438 7.25621 23.4 13 23.4ZM17.8192 11.3192C18.3269 10.8116 18.3269 9.98845 17.8192 9.48077C17.3115 8.97309 16.4884 8.97309 15.9807 9.48077L11.7 13.7615L10.0192 12.0808C9.51153 11.5731 8.68842 11.5731 8.18074 12.0808C7.67306 12.5884 7.67306 13.4116 8.18074 13.9192L10.7807 16.5192C11.2884 17.0269 12.1115 17.0269 12.6192 16.5192L17.8192 11.3192Z" fill="#2DD4BF"/>
</svg>
