<svg width="26" height="26" viewBox="0 0 26 26" fill="none" xmlns="http://www.w3.org/2000/svg">
<path fill-rule="evenodd" clip-rule="evenodd" d="M13 23.4C18.7437 23.4 23.4 18.7438 23.4 13C23.4 7.25624 18.7437 2.60001 13 2.60001C7.25621 2.60001 2.59998 7.25624 2.59998 13C2.59998 18.7438 7.25621 23.4 13 23.4ZM11.3192 9.48077C10.8115 8.97309 9.98842 8.97309 9.48074 9.48077C8.97305 9.98845 8.97305 10.8116 9.48074 11.3192L11.1615 13L9.48074 14.6808C8.97305 15.1884 8.97305 16.0116 9.48074 16.5192C9.98842 17.0269 10.8115 17.0269 11.3192 16.5192L13 14.8385L14.6807 16.5192C15.1884 17.0269 16.0115 17.0269 16.5192 16.5192C17.0269 16.0116 17.0269 15.1884 16.5192 14.6808L14.8385 13L16.5192 11.3192C17.0269 10.8116 17.0269 9.98845 16.5192 9.48077C16.0115 8.97309 15.1884 8.97309 14.6807 9.48077L13 11.1615L11.3192 9.48077Z" fill="#FB7185"/>
</svg>
